Coordinates
version=1
nRows=10
nColumns=46
inDegrees=yes

Units are S.I. units (second, meters, Newtons, ...)
Angles are in degrees.

endheader
time	pelvis_tilt	pelvis_list	pelvis_rotation	pelvis_tx	pelvis_ty	pelvis_tz	bb_angle	bb_tx	bb_ty	bb_tz	hip_flexion_r	hip_adduction_r	hip_rotation_r	knee_angle_r	knee_angle_r_beta	ankle_angle_r	subtalar_angle_r	mtp_angle_r	crank_angle_r	hip_flexion_l	hip_adduction_l	hip_rotation_l	knee_angle_l	knee_angle_l_beta	ankle_angle_l	subtalar_angle_l	mtp_angle_l	crank_angle_l	lumbar_extension	lumbar_bending	lumbar_rotation	arm_flex_r	arm_add_r	arm_rot_r	elbow_flex_r	pro_sup_r	wrist_flex_r	wrist_dev_r	arm_flex_l	arm_add_l	arm_rot_l	elbow_flex_l	pro_sup_l	wrist_flex_l	wrist_dev_l
      0.00500000	    -19.28539506	     -0.99664993	     -2.03758552	      0.14647054	      1.03948097	     -0.21117869	      0.00000000	      0.50000000	      0.00000000	      0.25000000	     80.09410009	     -1.11504499	      3.59338176	     76.39187523	      1.33328974	     -1.08777375	     -5.14862031	      0.00000000	      0.00000000	     59.21136754	     -4.35527653	      4.53028350	     86.35097991	      1.50710891	     -9.82449324	    -16.05658072	      0.00000000	      0.00000000	    -43.45593507	      0.67034801	      1.43356044	     79.14274015	     -4.46673742	     24.86467068	     36.90714773	     44.87394781	      0.00000000	      0.00000000	     75.71205821	     -8.61662324	     22.17288779	     39.17733933	     43.88841638	      0.00000000	      0.00000000
      0.01000000	    -19.29238841	     -0.99591888	     -2.02387845	      0.14645555	      1.03952090	     -0.21129566	      0.00000000	      0.50000000	      0.00000000	      0.25000000	     80.10277423	     -1.14144365	      3.57711244	     76.38293964	      1.33313379	     -1.13566340	     -5.23570542	      0.00000000	      0.00000000	     59.20664543	     -4.32185838	      4.51347934	     86.30373958	      1.50628441	    -10.05641390	    -16.40546296	      0.00000000	      0.00000000	    -43.42435533	      0.69868604	      1.42706444	     79.19243196	     -4.35647895	     24.76564466	     36.69227012	     44.79757443	      0.00000000	      0.00000000	     75.70865501	     -8.52348928	     22.06632746	     38.99468657	     43.82862922	      0.00000000	      0.00000000
      0.01500000	    -19.29150841	     -0.98021226	     -2.02133472	      0.14642342	      1.03952729	     -0.21131941	      0.00000000	      0.50000000	      0.00000000	      0.25000000	     80.11668619	     -1.14498639	      3.60935167	     76.39612131	      1.33336385	     -1.14813931	     -5.18888985	      0.00000000	      0.00000000	     59.19300598	     -4.30812213	      4.50446063	     86.28247328	      1.50591325	     -9.99291555	    -16.33760884	      0.00000000	      0.00000000	    -43.38333081	      0.69090024	      1.39868616	     79.33047506	     -4.22949066	     24.85847566	     36.23180065	     44.68991045	      0.00000000	      0.00000000	     75.83292653	     -8.43506764	     22.14994463	     38.51524487	     43.73485049	      0.00000000	      0.00000000
      0.02000000	    -19.23380702	     -0.98927941	     -1.99745475	      0.14639069	      1.03968107	     -0.21134277	      0.00000000	      0.50000000	      0.00000000	      0.25000000	     80.05812642	     -1.16158000	      3.61802637	     76.42877434	      1.33393376	     -1.09484600	     -5.18865078	      0.00000000	      0.00000000	     59.10477334	     -4.28139429	      4.53727664	     86.27822123	      1.50583903	     -9.70665192	    -16.11906354	      0.00000000	      0.00000000	    -43.48814139	      0.69576182	      1.45414041	     79.39887420	     -4.30462432	     24.79496212	     36.26671632	     44.66054789	      0.00000000	      0.00000000	     75.87955748	     -8.37295433	     22.07246921	     38.60237111	     43.72553844	      0.00000000	      0.00000000
      0.02500000	    -19.17205065	     -1.04323268	     -2.01411606	      0.14628047	      1.03984423	     -0.21127516	      0.00000000	      0.50000000	      0.00000000	      0.25000000	     80.02121359	     -1.16166547	      3.54120333	     76.48970844	      1.33499726	     -1.03860716	     -5.11592894	      0.00000000	      0.00000000	     59.05512939	     -4.37361118	      4.57464366	     86.30497925	      1.50630605	     -9.57332985	    -15.83779778	      0.00000000	      0.00000000	    -43.51389119	      0.73265811	      1.46227881	     79.51838658	     -4.31175696	     25.23101450	     35.92096121	     44.64955872	      0.00000000	      0.00000000	     76.02235933	     -8.46611193	     22.48505566	     38.23128150	     43.71492898	      0.00000000	      0.00000000
      0.03000000	    -19.24232295	     -1.06186882	     -1.98528340	      0.14623097	      1.03979276	     -0.21136112	      0.00000000	      0.50000000	      0.00000000	      0.25000000	     80.08005284	     -1.16281759	      3.53485062	     76.44266121	      1.33417613	     -1.13354001	     -5.21535171	      0.00000000	      0.00000000	     59.12337743	     -4.33422784	      4.62061918	     86.26841901	      1.50566795	     -9.59118494	    -15.94006194	      0.00000000	      0.00000000	    -43.44479129	      0.77783024	      1.46807693	     79.47378622	     -4.22883028	     24.92372019	     36.00280771	     44.11490961	      0.00000000	      0.00000000	     75.94946442	     -8.33880920	     22.10941875	     38.37814954	     43.31629562	      0.00000000	      0.00000000
      0.03500000	    -19.23128319	     -1.03186785	     -2.00313435	      0.14625251	      1.03983189	     -0.21131699	      0.00000000	      0.50000000	      0.00000000	      0.25000000	     80.08869273	     -1.15602022	      3.56536736	     76.47710059	      1.33477721	     -1.11202811	     -5.20060577	      0.00000000	      0.00000000	     59.09272488	     -4.34536113	      4.55133406	     86.23660455	      1.50511269	     -9.70690962	    -16.06703042	      0.00000000	      0.00000000	    -43.46738431	      0.72114882	      1.44408681	     79.39557111	     -4.23794529	     24.84836774	     36.25071929	     44.13394066	      0.00000000	      0.00000000	     75.85024711	     -8.36721432	     22.01413241	     38.57830142	     43.33508785	      0.00000000	      0.00000000
      0.04000000	    -19.24395280	     -1.06084291	     -1.98729217	      0.14616005	      1.03982396	     -0.21137726	      0.00000000	      0.50000000	      0.00000000	      0.25000000	     80.09218929	     -1.14842402	      3.56506357	     76.45394292	      1.33437303	     -1.07288851	     -5.23933460	      0.00000000	      0.00000000	     59.11827754	     -4.34402754	      4.58340176	     86.23145913	      1.50502288	     -9.78709607	    -16.17564226	      0.00000000	      0.00000000	    -43.46400389	      0.76011075	      1.47043130	     79.38892218	     -4.24979847	     24.82508800	     36.27994956	     44.12626875	      0.00000000	      0.00000000	     75.87537445	     -8.33873351	     22.00058974	     38.60336186	     43.33401037	      0.00000000	      0.00000000
      0.04500000	    -19.23657386	     -1.03290597	     -1.99626872	      0.14614438	      1.03983215	     -0.21137290	      0.00000000	      0.50000000	      0.00000000	      0.25000000	     80.11572503	     -1.15398271	      3.58504216	     76.50542205	      1.33527151	     -1.06590897	     -5.21202566	      0.00000000	      0.00000000	     59.08628390	     -4.32032805	      4.56467394	     86.19817748	      1.50444201	     -9.75366776	    -16.15951877	      0.00000000	      0.00000000	    -43.46959783	      0.73396084	      1.47255064	     79.45738938	     -4.24478551	     24.93473872	     36.11550368	     44.11117781	      0.00000000	      0.00000000	     75.96763574	     -8.32904988	     22.08832655	     38.45627863	     43.32152091	      0.00000000	      0.00000000
      0.05000000	    -19.22376910	     -1.03270337	     -1.99217349	      0.14611524	      1.03985511	     -0.21138859	      0.00000000	      0.50000000	      0.00000000	      0.25000000	     80.09383666	     -1.15362919	      3.60033089	     76.49606744	      1.33510824	     -0.99976014	     -5.15212372	      0.00000000	      0.00000000	     59.07294995	     -4.32934936	      4.56457282	     86.19834888	      1.50444500	     -9.63000371	    -15.98475630	      0.00000000	      0.00000000	    -43.46322243	      0.72412297	      1.42730139	     79.49409794	     -4.12364659	     24.80908598	     35.95096448	     43.77138449	      0.00000000	      0.00000000	     75.98302749	     -8.23585161	     21.91570822	     38.30485245	     43.07132319	      0.00000000	      0.00000000
